# xmcd CD database file
#
# Track frame offsets:
#	150
#	15875
#	28585
#	43420
#	55540
#	68493
#	88146
#	103010
#	119108
#	131525
#	143352
#	153737
#	163374
#	177449
#	188311
#	201645
#	214139
#	230696
#	251620
#	262368
#	282791
#	294883
#	305693
#	317988
#	330452
#	344998
#
# Disc length: 4749 seconds
#
# Revision: 0
# Processed by: cddbd v1.5.2PL0 Copyright (c) Steve Scherf et al.
# Submitted via: CDex 1.51
#
DISCID=94128b1a
DTITLE=Various Country - Country Sound Vol. 2
DYEAR=1900
DGENRE=Country
TTITLE0=Willie Nelson and Julio Iglesias - Blue Spanish Eyes
TTITLE1=Pee Wee King and Redd Stewart - Backward Turn Backward
TTITLE2=Bob Willis and His Texas Playboys - Faded Love
TTITLE3=Merle Haggard - Okee From Muskogee
TTITLE4=John Denver - Annie's Song
TTITLE5=Kenny Rogers - Coward Of The County
TTITLE6=Judy Collins - Both Sides Now
TTITLE7=Anne Murray - You Needed Me
TTITLE8=Roy Orbison - Crying
TTITLE9=Johnny Cash - Ring Of Fire
TTITLE10=Willie Nelson - Blue Eyes Crying In The Rain
TTITLE11=Anne Murray - Snowbird
TTITLE12=Johnny Cash - Orange Blossom Special
TTITLE13=Porter Wagoner - Green Green Grass Of Homre
TTITLE14=Hank Thompson - Wildwood Flower
TTITLE15=Johnny Cash and June Carter - Jackson
TTITLE16=Merle Haggard - Family Bible
TTITLE17=John Denver - Back Home Again
TTITLE18=Elvis Presley -  When My Blue Moon Turns To Gold
TTITLE19=Hank Thompson and Kitty Wells - The Wild Side Of Life
TTITLE20=Merle Haggard - San Antonio Rose
TTITLE21=Roy Orbison - Blue Bayou
TTITLE22=Eddy Arnold - Cajun Lullaby
TTITLE23=Johnny Cash - Peace In The Valley
TTITLE24=Anne Murray - Could I Have This Dance
TTITLE25=Jim Reeves - Adios Amigo
EXTD=
EXTT0=
EXTT1=
EXTT2=
EXTT3=
EXTT4=
EXTT5=
EXTT6=
EXTT7=
EXTT8=
EXTT9=
EXTT10=
EXTT11=
EXTT12=
EXTT13=
EXTT14=
EXTT15=
EXTT16=
EXTT17=
EXTT18=
EXTT19=
EXTT20=
EXTT21=
EXTT22=
EXTT23=
EXTT24=
EXTT25=
PLAYORDER=
